HIERARCHY
ROOT root
{
	OFFSET 0.000000 0.000000 0.000000
	CHANNELS 6 Xposition Yposition Zposition Zrotation Yrotation Xrotation
	JOINT lhip
	{
		OFFSET 0.058581 -0.082280 -0.017664
		CHANNELS 3 Zrotation Yrotation Xrotation
		JOINT lknee
		{
			OFFSET 0.043451 -0.386469 0.008037
			CHANNELS 3 Zrotation Yrotation Xrotation
			JOINT lankle
			{
				OFFSET -0.014790 -0.426874 -0.037428
				CHANNELS 3 Zrotation Yrotation Xrotation
				JOINT ltoe
				{
					OFFSET 0.041054 -0.060286 0.122042
					CHANNELS 3 Zrotation Yrotation Xrotation
					End Site
					{
						OFFSET 0.000000 0.000000 0.000000
					}
				}
			}
		}
	}
	JOINT rhip
	{
		OFFSET -0.060310 -0.090513 -0.013543
		CHANNELS 3 Zrotation Yrotation Xrotation
		JOINT rknee
		{
			OFFSET -0.043257 -0.383688 -0.004843
			CHANNELS 3 Zrotation Yrotation Xrotation
			JOINT rankle
			{
				OFFSET 0.019056 -0.420046 -0.034562
				CHANNELS 3 Zrotation Yrotation Xrotation
				JOINT rtoe
				{
					OFFSET -0.034840 -0.062106 0.130323
					CHANNELS 3 Zrotation Yrotation Xrotation
					End Site
					{
						OFFSET 0.000000 0.000000 0.000000
					}
				}
			}
		}
	}
	JOINT lowerback
	{
		OFFSET 0.004439 0.124404 -0.038385
		CHANNELS 3 Zrotation Yrotation Xrotation
		JOINT upperback
		{
			OFFSET 0.004488 0.137956 0.026820
			CHANNELS 3 Zrotation Yrotation Xrotation
			JOINT chest
			{
				OFFSET -0.002265 0.056032 0.002855
				CHANNELS 3 Zrotation Yrotation Xrotation
				JOINT lowerneck
				{
					OFFSET -0.013390 0.211636 -0.033468
					CHANNELS 3 Zrotation Yrotation Xrotation
					JOINT upperneck
					{
						OFFSET 0.010113 0.088937 0.050410
						CHANNELS 3 Zrotation Yrotation Xrotation
						End Site
						{
							OFFSET 0.000000 0.000000 0.000000
						}
					}
				}
				JOINT lclavicle
				{
					OFFSET 0.071702 0.114000 -0.018898
					CHANNELS 3 Zrotation Yrotation Xrotation
					JOINT lshoulder
					{
						OFFSET 0.122921 0.045205 -0.019046
						CHANNELS 3 Zrotation Yrotation Xrotation
						JOINT lelbow
						{
							OFFSET 0.255332 -0.015649 -0.022946
							CHANNELS 3 Zrotation Yrotation Xrotation
							JOINT lwrist
							{
								OFFSET 0.265709 0.012698 -0.007375
								CHANNELS 3 Zrotation Yrotation Xrotation
								End Site
								{
									OFFSET 0.000000 0.000000 0.000000
								}
							}
						}
					}
				}
				JOINT rclavicle
				{
					OFFSET -0.082954 0.112472 -0.023707
					CHANNELS 3 Zrotation Yrotation Xrotation
					JOINT rshoulder
					{
						OFFSET -0.113228 0.046853 -0.008472
						CHANNELS 3 Zrotation Yrotation Xrotation
						JOINT relbow
						{
							OFFSET -0.260127 -0.014369 -0.031269
							CHANNELS 3 Zrotation Yrotation Xrotation
							JOINT rwrist
							{
								OFFSET -0.269108 0.006794 -0.006027
								CHANNELS 3 Zrotation Yrotation Xrotation
								End Site
								{
									OFFSET 0.000000 0.000000 0.000000
								}
							}
						}
					}
				}
			}
		}
	}
}
MOTION
Frames: 10
Frame Time: 0.033333
-0.289739 0.758423 0.949217 -13.681820 -3.088857 60.136240 11.813075 0.816292 -34.275211 -1.173332 17.581007 96.280506 -2.131722 0.247561 -6.808862 0.000000 -0.000000 0.000000 5.647026 1.934539 3.205306 0.117171 6.061388 45.782326 -8.267355 -0.017232 -22.687561 0.000000 -0.000000 0.000000 -6.130339 3.655531 14.046052 2.706192 -8.538444 -0.451794 -0.276007 -0.035299 -5.666472 2.523620 38.277861 11.173485 3.828386 34.296151 12.393173 -22.474630 -26.749126 3.039775 -45.388423 -26.134899 17.297173 170.686650 -72.546210 -145.935181 47.381247 -20.597713 -22.783261 22.372904 19.010803 5.324807 47.270629 28.259581 18.519153 -167.820401 67.334737 -136.958103 -50.376927 24.377599 -22.083535 
-0.282317 0.747602 0.950147 -15.535252 -5.628794 56.484086 13.467446 2.955322 -42.594063 -1.169047 20.216744 91.615332 -2.763609 -0.602410 -7.977466 0.000000 -0.000000 0.000000 2.441938 0.068575 7.217741 0.203178 9.387860 46.747167 -7.721993 1.578857 -24.154017 0.000000 -0.000000 0.000000 -5.854577 6.109249 17.792417 2.050879 -8.711739 -0.136063 -0.355931 1.003553 -5.182641 1.827594 39.367447 11.440472 4.437925 33.796450 11.815608 -21.619820 -28.665029 1.783734 -42.263916 -26.651000 14.894781 155.435748 -78.635813 -133.089438 46.019807 -19.953071 -23.597119 22.864788 21.080653 6.454546 47.314232 29.215535 17.055448 -155.138151 72.009113 -126.697642 -49.686128 23.068658 -22.193540 
-0.274455 0.736957 0.950107 -16.791635 -8.014857 53.303723 15.133073 5.244176 -48.913370 -0.589998 22.603242 83.142963 -3.667282 -0.634292 -8.458628 0.000000 -0.000000 0.000000 -1.104518 -1.244700 10.481247 0.361013 12.101849 47.843273 -7.255561 3.047583 -25.693721 0.000000 -0.000000 0.000000 -5.694073 8.103241 20.922608 1.638685 -8.983681 0.576332 -0.172276 1.760618 -5.238404 1.401798 40.454185 12.499229 4.686520 33.461532 10.910029 -21.174322 -30.297569 1.061627 -38.453230 -26.717431 11.827695 106.631606 -83.194239 -87.198468 41.950965 -19.402462 -23.867771 23.678757 22.914229 7.788255 48.040871 30.202072 15.970008 -128.641343 76.298560 -103.539751 -47.029727 21.118213 -22.195224 
-0.266052 0.726455 0.948742 -17.334849 -10.012894 50.612571 16.556534 7.028902 -53.203949 0.132202 25.072614 71.760753 -4.737486 0.419495 -8.469337 0.000000 -0.000000 0.000000 -4.480361 -1.862177 13.010407 0.634434 14.036545 49.094831 -6.769786 4.011912 -27.311842 0.000000 -0.000000 0.000000 -5.726787 9.837742 23.120810 1.683975 -9.432239 1.957133 0.157917 2.153220 -5.622252 1.195972 41.717198 13.753221 4.667285 32.641261 10.120733 -20.616336 -32.121424 0.574468 -33.836313 -26.506164 8.715177 43.215891 -78.597078 -26.893587 37.781711 -20.155204 -22.731963 24.751675 24.539959 8.768162 49.161879 30.861733 15.289552 -86.793245 75.770716 -65.767955 -42.362696 18.967685 -22.254000 
-0.257510 0.716091 0.945826 -17.525590 -11.698703 48.451602 17.446543 8.684559 -55.854304 -0.922500 26.515618 58.147398 -6.178074 1.202504 -6.969748 0.000000 -0.000000 0.000000 -7.655023 -2.291699 14.739543 1.065365 15.719454 50.689025 -6.387142 4.670689 -29.073567 0.000000 -0.000000 0.000000 -5.619220 11.152771 24.824940 1.788933 -9.997782 3.051030 0.363923 2.371324 -5.886100 1.496291 43.426267 14.995811 4.632732 31.407192 9.502913 -19.186093 -34.066482 -0.274002 -28.357990 -25.702724 5.736231 19.444914 -68.319610 -4.836373 33.065294 -22.516268 -19.214690 25.935263 25.992839 9.613428 50.692015 31.143683 14.553639 -55.849870 69.445113 -38.954641 -37.398737 16.845965 -22.725136 
-0.248771 0.705943 0.941610 -17.885327 -13.131828 46.726952 18.237118 10.363694 -57.031608 -4.157206 25.298605 43.052901 -8.548252 1.417628 -3.761927 0.000000 -0.000000 0.000000 -10.447800 -2.554414 15.793683 1.823669 17.400125 52.684014 -6.341207 4.907621 -30.973602 0.000000 -0.000000 0.000000 -5.343181 12.048170 26.129902 1.946990 -10.488463 4.270357 0.525317 2.465924 -6.240004 1.948460 45.492878 15.986434 4.445355 29.994220 8.885302 -17.148342 -36.313863 -1.414979 -22.189389 -23.688414 3.422678 9.559100 -56.542552 4.692922 28.485956 -25.391294 -13.006934 26.964330 27.701530 10.468025 51.834375 30.840444 13.308254 -38.239933 60.255917 -26.763326 -33.171027 13.855548 -25.115217 
-0.240064 0.695525 0.937179 -18.189069 -14.188538 45.074126 18.941730 11.848983 -56.999127 -6.612550 21.815976 29.136984 -11.865095 0.968794 -1.386960 0.000000 -0.000000 0.000000 -12.936684 -2.691143 16.865707 2.545180 18.759355 54.477583 -6.103605 5.344356 -32.765688 0.000000 -0.000000 0.000000 -5.037985 12.422469 27.486390 2.162115 -11.135582 5.635708 0.699729 2.535134 -6.780264 2.689844 47.929624 16.900633 3.870174 28.380579 8.287447 -14.683011 -38.355984 -2.686684 -15.828038 -20.444908 2.165368 4.436651 -45.025623 11.002905 21.845610 -28.611426 -4.437642 27.972664 29.361495 11.148261 52.278752 29.957992 11.392273 -26.401685 49.947147 -22.605815 -27.701173 11.138537 -30.515764 
-0.231273 0.684420 0.933249 -18.257585 -14.916547 43.506221 19.316441 13.473915 -56.637172 -6.952015 18.993191 19.113113 -14.746693 0.454400 -0.432425 0.000000 -0.000000 0.000000 -15.345206 -2.850955 18.013242 3.460138 19.997386 55.982258 -5.709409 5.664513 -34.305547 0.000000 -0.000000 0.000000 -4.792068 12.588691 28.799761 2.457566 -11.913800 6.959233 0.939642 2.556055 -7.118111 3.350978 50.244121 17.535356 3.124187 27.069363 7.840456 -11.792405 -39.606618 -3.965659 -10.195057 -16.993473 1.530768 1.132766 -34.046619 15.355994 16.055583 -30.483907 4.478249 28.785596 30.333379 11.404470 52.054272 28.660581 8.813964 -17.114305 38.496910 -22.246416 -20.941467 10.687894 -34.704606 
-0.221900 0.673047 0.930059 -18.121122 -15.449736 42.319297 19.602292 15.417661 -56.769276 -6.451186 18.870350 14.042702 -15.565332 1.238886 -0.491958 0.000000 -0.000000 0.000000 -17.745941 -3.066375 18.829958 4.533025 21.151867 57.279970 -5.378853 5.784413 -35.573009 0.000000 -0.000000 0.000000 -4.606537 12.696448 30.045076 2.713721 -12.540624 7.700705 1.297632 2.631848 -7.033424 3.315757 51.814027 17.412495 2.693362 26.461168 7.746196 -9.354272 -39.725102 -4.986328 -5.620892 -14.056650 -0.159832 -0.536112 -24.456047 15.281383 11.454297 -30.495559 9.951268 29.378236 30.177020 11.549437 51.091955 26.597506 5.858483 -10.211440 27.414259 -24.416155 -14.817520 10.940785 -36.450854 
-0.211456 0.662453 0.927387 -17.711723 -15.835026 41.799432 20.312859 17.037414 -57.141112 -6.213451 19.330642 12.292277 -14.942840 3.616349 0.121747 0.000000 -0.000000 0.000000 -20.014625 -3.309204 18.966477 5.824996 22.165610 58.482798 -5.273675 5.543848 -36.597673 0.000000 -0.000000 0.000000 -4.446503 12.762911 31.148376 2.854443 -12.941092 7.920429 1.545373 2.924380 -6.744482 2.103815 52.887236 16.139052 2.790354 26.101827 7.546683 -7.765624 -38.909517 -5.817818 -1.084723 -11.490308 -2.942390 -1.866663 -17.399775 11.046916 10.950890 -29.652999 10.543638 30.082129 28.997914 11.800879 49.770393 22.964002 3.228278 -6.426862 18.653376 -27.986508 -12.640839 10.337770 -35.152920 
